<svg id="svg" xmlns="http://www.w3.org/2000/svg" xmlns:xlink="http://www.w3.org/1999/xlink" width="400" height="25.375626043405674" viewBox="0, 0, 400,25.375626043405674" version="1.1"><g id="svgg"><path id="path0" d="M0.000 12.667 L 0.000 25.333 200.000 25.333 L 400.000 25.333 400.000 12.667 L 400.000 0.000 200.000 0.000 L 0.000 0.000 0.000 12.667 M73.076 5.755 C 75.434 6.369,76.928 7.539,76.434 8.385 C 76.264 8.678,75.975 9.179,75.793 9.500 C 75.610 9.821,75.320 10.282,75.147 10.526 C 74.975 10.769,74.833 11.018,74.833 11.079 C 74.833 11.284,73.819 12.667,73.669 12.667 C 73.588 12.667,72.982 11.748,72.323 10.625 C 71.664 9.502,70.947 8.304,70.729 7.962 C 70.511 7.620,70.333 7.297,70.333 7.245 C 70.333 7.192,70.146 6.873,69.917 6.536 C 69.688 6.199,69.500 5.871,69.500 5.807 C 69.500 5.452,71.787 5.419,73.076 5.755 M69.281 6.750 C 69.497 7.117,69.725 7.529,69.787 7.667 C 69.849 7.804,70.264 8.510,70.709 9.235 C 71.324 10.238,71.466 10.586,71.300 10.691 C 70.963 10.905,63.875 10.869,63.741 10.652 C 63.358 10.032,65.560 7.450,67.250 6.541 C 68.486 5.875,68.784 5.906,69.281 6.750 M77.981 9.274 C 79.102 10.966,79.710 14.728,79.000 15.583 C 78.768 15.863,73.621 15.958,73.198 15.690 C 72.966 15.543,73.117 15.248,75.218 11.750 C 77.492 7.961,77.253 8.175,77.981 9.274 M69.098 11.727 C 69.146 11.852,68.945 12.358,68.652 12.852 C 68.105 13.775,67.761 14.371,67.147 15.458 C 66.953 15.802,66.653 16.282,66.480 16.526 C 66.308 16.769,66.167 17.008,66.167 17.056 C 66.167 17.245,65.109 18.833,64.984 18.833 C 64.632 18.833,63.577 16.937,63.168 15.569 C 62.883 14.615,62.999 11.874,63.333 11.663 C 63.754 11.397,68.993 11.456,69.098 11.727 M69.653 16.137 C 70.119 16.900,70.500 17.562,70.500 17.607 C 70.500 17.653,70.725 18.017,71.000 18.417 C 71.275 18.816,71.500 19.178,71.500 19.221 C 71.500 19.264,71.805 19.802,72.178 20.416 C 73.006 21.778,73.029 21.753,70.944 21.738 C 68.712 21.723,65.667 20.439,65.667 19.513 C 65.667 19.270,66.795 17.261,68.042 15.282 C 68.622 14.362,68.542 14.320,69.653 16.137 M78.458 16.691 C 79.104 17.338,76.298 20.374,74.374 21.108 C 73.556 21.421,73.401 21.328,72.799 20.167 C 72.680 19.938,72.180 19.086,71.687 18.273 C 70.978 17.104,70.839 16.766,71.020 16.650 C 71.378 16.424,78.228 16.461,78.458 16.691 " stroke="none" fill="#343434" fill-rule="evenodd"></path><path id="path1" d="M70.081 6.160 C 70.138 6.339,70.706 7.351,71.342 8.408 C 71.979 9.466,72.500 10.406,72.500 10.499 C 72.500 10.591,72.566 10.667,72.647 10.667 C 72.728 10.667,72.839 10.798,72.893 10.958 C 73.467 12.665,73.608 12.600,75.224 9.893 C 76.618 7.558,76.642 7.725,74.775 6.680 C 73.283 5.844,69.861 5.465,70.081 6.160 M67.303 6.875 C 65.865 7.698,64.000 9.673,64.000 10.373 C 64.000 10.443,65.575 10.500,67.500 10.500 C 69.425 10.500,71.000 10.440,71.000 10.366 C 71.000 10.292,70.775 9.877,70.500 9.444 C 70.225 9.010,70.000 8.628,70.000 8.594 C 70.000 8.358,68.667 6.408,68.482 6.375 C 68.354 6.352,67.824 6.577,67.303 6.875 M76.888 9.458 C 76.043 11.007,75.087 12.588,74.966 12.639 C 74.893 12.669,74.833 12.765,74.833 12.850 C 74.833 12.936,74.533 13.500,74.167 14.103 C 73.800 14.707,73.500 15.268,73.500 15.350 C 73.500 15.433,74.691 15.500,76.146 15.500 L 78.792 15.500 78.896 14.979 C 79.225 13.333,78.789 11.116,77.843 9.625 C 77.241 8.676,77.308 8.688,76.888 9.458 M63.360 12.478 C 62.924 13.933,63.439 16.281,64.556 17.924 L 64.970 18.534 65.215 18.142 C 65.535 17.630,67.622 14.084,68.045 13.333 C 68.226 13.012,68.477 12.602,68.604 12.421 C 68.998 11.857,68.900 11.833,66.193 11.833 L 63.553 11.833 63.360 12.478 M68.387 15.208 C 67.976 15.854,67.646 16.452,67.559 16.708 C 67.505 16.869,67.395 17.000,67.314 17.000 C 67.233 17.000,67.167 17.076,67.167 17.170 C 67.167 17.263,66.870 17.828,66.508 18.424 L 65.849 19.509 66.549 20.025 C 67.858 20.989,68.932 21.359,70.708 21.458 C 72.528 21.559,72.569 21.528,71.936 20.538 C 71.718 20.196,70.885 18.810,70.086 17.458 C 68.530 14.824,68.585 14.897,68.387 15.208 M71.374 17.208 C 71.489 17.415,71.621 17.621,71.667 17.667 C 71.748 17.748,71.826 17.881,72.535 19.148 C 72.721 19.479,73.014 19.949,73.186 20.192 C 73.359 20.436,73.500 20.717,73.500 20.817 C 73.500 21.871,76.982 19.309,77.969 17.529 L 78.355 16.833 74.759 16.833 L 71.164 16.833 71.374 17.208 " stroke="none" fill="#f7f7f7" fill-rule="evenodd"></path><path id="path2" d="M69.917 5.832 C 69.861 5.923,69.898 6.129,69.999 6.290 C 70.155 6.539,70.166 6.524,70.073 6.187 L 69.964 5.791 71.507 5.865 C 72.355 5.905,72.907 5.882,72.733 5.814 C 72.259 5.628,70.035 5.642,69.917 5.832 M67.458 6.595 C 66.812 6.946,66.885 7.067,67.542 6.733 C 68.170 6.414,68.281 6.331,68.069 6.340 C 67.985 6.344,67.710 6.459,67.458 6.595 M69.312 7.417 C 69.402 7.600,69.598 7.900,69.747 8.083 L 70.018 8.417 69.855 8.083 C 69.765 7.900,69.569 7.600,69.420 7.417 L 69.148 7.083 69.312 7.417 M70.750 7.667 C 70.892 7.942,71.046 8.167,71.092 8.167 C 71.138 8.167,71.059 7.942,70.917 7.667 C 70.774 7.392,70.621 7.167,70.575 7.167 C 70.529 7.167,70.608 7.392,70.750 7.667 M76.144 7.540 C 76.268 7.699,76.326 7.946,76.271 8.090 C 76.213 8.240,76.240 8.307,76.335 8.249 C 76.590 8.091,76.531 7.731,76.208 7.479 C 75.944 7.272,75.938 7.278,76.144 7.540 M64.705 8.958 C 64.274 9.581,64.134 9.833,64.218 9.833 C 64.257 9.833,64.488 9.533,64.730 9.167 C 65.223 8.421,65.202 8.241,64.705 8.958 M70.006 8.583 C 70.007 8.675,70.161 8.938,70.348 9.167 C 70.575 9.443,70.631 9.471,70.517 9.250 C 70.236 8.706,70.005 8.405,70.006 8.583 M77.761 9.517 C 78.076 9.984,78.333 10.447,78.333 10.545 C 78.333 10.642,78.381 10.674,78.440 10.616 C 78.559 10.497,77.498 8.667,77.309 8.667 C 77.243 8.667,77.447 9.049,77.761 9.517 M71.750 9.333 C 71.892 9.608,72.046 9.833,72.092 9.833 C 72.138 9.833,72.059 9.608,71.917 9.333 C 71.774 9.058,71.621 8.833,71.575 8.833 C 71.529 8.833,71.608 9.058,71.750 9.333 M63.944 10.111 C 63.453 10.603,63.863 10.667,67.500 10.667 C 71.129 10.667,71.771 10.560,71.002 10.085 C 70.907 10.026,70.879 10.093,70.936 10.241 C 71.024 10.470,70.627 10.500,67.500 10.500 C 64.426 10.500,63.977 10.467,64.060 10.250 C 64.163 9.982,64.123 9.933,63.944 10.111 M75.750 11.167 C 75.608 11.442,75.529 11.667,75.575 11.667 C 75.621 11.667,75.774 11.442,75.917 11.167 C 76.059 10.892,76.138 10.667,76.092 10.667 C 76.046 10.667,75.892 10.892,75.750 11.167 M63.324 12.109 C 63.231 12.352,63.184 12.633,63.220 12.734 C 63.255 12.834,63.339 12.669,63.407 12.367 L 63.530 11.818 66.265 11.867 C 67.770 11.894,69.000 11.860,69.000 11.792 C 69.000 11.723,67.761 11.667,66.246 11.667 L 63.492 11.667 63.324 12.109 M75.099 12.250 C 74.949 12.479,74.890 12.667,74.969 12.667 C 75.048 12.667,75.199 12.479,75.303 12.250 C 75.407 12.021,75.466 11.833,75.432 11.833 C 75.399 11.833,75.249 12.021,75.099 12.250 M68.256 12.931 C 68.100 13.168,68.002 13.391,68.037 13.426 C 68.072 13.461,68.232 13.267,68.393 12.995 C 68.752 12.387,68.645 12.337,68.256 12.931 M79.030 13.500 C 79.011 14.096,78.957 14.771,78.910 15.000 L 78.824 15.417 79.002 15.009 C 79.100 14.784,79.154 14.109,79.123 13.509 L 79.065 12.417 79.030 13.500 M74.083 14.000 C 73.941 14.275,73.862 14.500,73.908 14.500 C 73.954 14.500,74.108 14.275,74.250 14.000 C 74.392 13.725,74.471 13.500,74.425 13.500 C 74.379 13.500,74.226 13.725,74.083 14.000 M67.730 13.875 C 67.157 14.848,67.119 14.931,67.411 14.583 C 67.750 14.180,68.042 13.667,67.932 13.667 C 67.889 13.667,67.798 13.760,67.730 13.875 M63.195 14.750 C 63.192 14.933,63.255 15.233,63.333 15.417 C 63.516 15.841,63.516 15.403,63.333 14.833 C 63.226 14.498,63.199 14.482,63.195 14.750 M68.319 15.117 C 68.107 15.386,68.111 15.395,68.356 15.203 C 68.593 15.018,68.687 15.090,69.072 15.745 C 69.315 16.160,69.555 16.500,69.604 16.500 C 69.709 16.500,69.042 15.352,68.752 15.033 C 68.592 14.857,68.511 14.873,68.319 15.117 M73.285 15.271 C 72.972 15.584,73.605 15.663,76.135 15.630 L 78.917 15.592 76.257 15.542 C 74.742 15.513,73.554 15.420,73.496 15.326 C 73.440 15.236,73.345 15.211,73.285 15.271 M66.147 16.542 C 66.037 16.748,65.839 17.104,65.706 17.333 C 65.475 17.733,65.476 17.736,65.745 17.417 C 66.077 17.022,66.544 16.167,66.427 16.167 C 66.382 16.167,66.256 16.335,66.147 16.542 M74.716 16.792 C 77.373 16.827,78.318 16.891,78.232 17.029 C 78.160 17.146,78.190 17.172,78.310 17.098 C 78.859 16.758,78.043 16.670,74.698 16.705 L 71.083 16.743 74.716 16.792 M70.179 17.583 C 70.385 17.950,70.625 18.325,70.712 18.417 C 70.962 18.678,70.391 17.622,70.082 17.250 C 69.929 17.067,69.973 17.217,70.179 17.583 M77.765 17.854 C 77.272 18.687,76.488 19.499,75.594 20.101 C 75.132 20.412,74.817 20.667,74.893 20.667 C 75.516 20.667,78.445 17.722,78.132 17.410 C 78.096 17.374,77.930 17.573,77.765 17.854 M66.417 18.333 C 66.274 18.608,66.196 18.833,66.241 18.833 C 66.287 18.833,66.441 18.608,66.583 18.333 C 66.726 18.058,66.804 17.833,66.759 17.833 C 66.713 17.833,66.559 18.058,66.417 18.333 M66.030 19.761 C 66.185 19.938,66.560 20.225,66.864 20.399 C 67.516 20.771,67.344 20.586,66.417 19.918 C 66.029 19.639,65.867 19.573,66.030 19.761 M71.645 20.083 C 71.735 20.267,71.931 20.567,72.080 20.750 L 72.352 21.083 72.188 20.750 C 72.098 20.567,71.902 20.267,71.753 20.083 L 71.482 19.750 71.645 20.083 M73.078 20.292 C 73.223 20.590,73.377 20.833,73.421 20.833 C 73.587 20.833,73.480 20.568,73.153 20.167 L 72.813 19.750 73.078 20.292 M72.333 21.328 C 72.333 21.497,71.973 21.528,70.708 21.467 C 69.815 21.424,69.271 21.443,69.500 21.511 C 70.628 21.843,72.839 21.617,72.433 21.211 C 72.378 21.156,72.333 21.209,72.333 21.328 " stroke="none" fill="#a4a4a4" fill-rule="evenodd"></path><path id="path3" d="M70.542 5.621 C 70.885 5.657,71.448 5.657,71.792 5.621 C 72.135 5.585,71.854 5.556,71.167 5.556 C 70.479 5.556,70.198 5.585,70.542 5.621 M69.500 5.801 C 69.500 5.876,69.617 6.082,69.759 6.260 C 70.011 6.574,70.014 6.573,69.848 6.230 C 69.755 6.036,69.726 5.830,69.784 5.772 C 69.842 5.714,69.801 5.667,69.694 5.667 C 69.587 5.667,69.500 5.727,69.500 5.801 M72.917 5.833 C 73.100 5.912,73.362 5.977,73.500 5.977 C 73.658 5.977,73.627 5.924,73.417 5.833 C 73.233 5.755,72.971 5.690,72.833 5.690 C 72.676 5.690,72.707 5.743,72.917 5.833 M76.153 7.373 C 76.507 7.775,76.531 7.885,76.358 8.290 C 76.176 8.716,76.180 8.726,76.414 8.426 C 76.768 7.973,76.733 7.783,76.208 7.321 L 75.750 6.917 76.153 7.373 M70.340 7.250 C 70.340 7.342,70.494 7.604,70.682 7.833 C 70.908 8.110,70.965 8.138,70.850 7.917 C 70.569 7.373,70.338 7.072,70.340 7.250 M65.310 7.958 C 64.657 8.649,64.000 9.559,64.000 9.773 C 64.000 9.849,64.198 9.612,64.439 9.247 C 64.681 8.882,65.146 8.302,65.473 7.958 C 65.800 7.615,66.030 7.333,65.984 7.333 C 65.938 7.333,65.635 7.615,65.310 7.958 M77.085 8.665 C 77.029 8.755,77.083 8.791,77.206 8.744 C 77.340 8.692,77.616 8.956,77.905 9.413 C 78.404 10.202,78.655 10.436,78.312 9.792 C 77.757 8.750,77.295 8.325,77.085 8.665 M71.621 9.429 C 71.875 9.895,72.216 10.457,72.379 10.679 C 72.541 10.902,72.466 10.703,72.212 10.237 C 71.958 9.772,71.617 9.209,71.454 8.987 C 71.292 8.765,71.367 8.964,71.621 9.429 M63.723 10.261 C 63.522 10.783,63.936 10.840,67.595 10.792 L 71.250 10.743 67.522 10.705 C 63.886 10.668,63.797 10.659,63.882 10.333 C 63.985 9.939,63.867 9.886,63.723 10.261 M72.917 11.667 C 73.059 11.942,73.213 12.167,73.259 12.167 C 73.304 12.167,73.226 11.942,73.083 11.667 C 72.941 11.392,72.787 11.167,72.741 11.167 C 72.696 11.167,72.774 11.392,72.917 11.667 M78.857 11.333 C 78.857 11.471,78.921 11.733,79.000 11.917 C 79.090 12.127,79.143 12.158,79.143 12.000 C 79.143 11.862,79.079 11.600,79.000 11.417 C 78.910 11.207,78.857 11.176,78.857 11.333 M64.333 11.613 C 66.538 11.733,69.129 11.740,69.058 11.625 C 69.015 11.556,67.729 11.514,66.198 11.532 C 64.668 11.549,63.829 11.586,64.333 11.613 M74.750 12.542 C 73.599 14.441,73.472 14.667,73.555 14.667 C 73.601 14.667,74.030 14.010,74.509 13.208 C 75.589 11.399,75.533 11.500,75.450 11.500 C 75.412 11.500,75.097 11.969,74.750 12.542 M63.105 12.042 C 62.963 12.572,62.980 15.211,63.128 15.442 C 63.195 15.547,63.250 14.741,63.250 13.650 C 63.250 11.487,63.251 11.497,63.105 12.042 M68.259 14.958 L 67.980 15.417 68.303 15.049 C 68.480 14.846,68.684 14.734,68.756 14.799 C 68.828 14.864,68.833 14.823,68.767 14.708 C 68.603 14.423,68.577 14.436,68.259 14.958 M78.963 15.292 C 78.869 15.649,78.792 15.660,76.058 15.709 L 73.250 15.759 76.021 15.796 C 78.870 15.834,79.329 15.737,79.128 15.135 C 79.090 15.020,79.015 15.090,78.963 15.292 M72.866 16.624 C 73.846 16.654,75.496 16.654,76.532 16.625 C 77.569 16.595,76.767 16.571,74.750 16.571 C 72.733 16.571,71.885 16.595,72.866 16.624 M66.873 17.208 C 66.174 18.386,65.818 19.078,66.115 18.679 C 66.514 18.145,67.360 16.667,67.267 16.667 C 67.227 16.667,67.049 16.910,66.873 17.208 M70.833 16.744 C 70.833 16.919,71.503 18.000,71.611 18.000 C 71.656 18.000,71.525 17.719,71.318 17.375 C 70.857 16.609,70.833 16.578,70.833 16.744 M78.083 17.667 C 77.941 17.942,77.862 18.167,77.908 18.167 C 77.954 18.167,78.108 17.942,78.250 17.667 C 78.392 17.392,78.471 17.167,78.425 17.167 C 78.379 17.167,78.226 17.392,78.083 17.667 M64.000 17.571 C 64.000 17.792,64.827 18.833,65.003 18.833 C 65.086 18.833,65.237 18.665,65.337 18.458 C 65.501 18.120,65.495 18.112,65.282 18.375 C 64.959 18.775,64.905 18.754,64.423 18.045 C 64.190 17.703,64.000 17.489,64.000 17.571 M76.417 19.698 L 75.917 20.210 76.542 19.752 C 76.885 19.500,77.167 19.265,77.167 19.230 C 77.167 19.051,76.864 19.240,76.417 19.698 M72.673 19.917 C 72.674 20.008,72.827 20.271,73.015 20.500 C 73.241 20.777,73.298 20.805,73.183 20.583 C 72.902 20.040,72.672 19.738,72.673 19.917 M72.083 20.500 C 72.226 20.775,72.379 21.000,72.425 21.000 C 72.471 21.000,72.392 20.775,72.250 20.500 C 72.108 20.225,71.954 20.000,71.908 20.000 C 71.862 20.000,71.941 20.225,72.083 20.500 M74.833 20.697 C 74.329 20.964,73.775 21.145,73.601 21.100 C 73.372 21.041,73.335 21.069,73.468 21.202 C 73.686 21.420,74.944 20.989,75.539 20.493 C 76.024 20.088,75.944 20.111,74.833 20.697 M66.763 20.522 C 66.874 20.700,68.175 21.381,68.254 21.301 C 68.285 21.271,67.941 21.049,67.490 20.809 C 67.039 20.568,66.712 20.439,66.763 20.522 M68.750 21.500 C 68.933 21.579,69.196 21.643,69.333 21.643 C 69.491 21.643,69.460 21.590,69.250 21.500 C 69.067 21.421,68.804 21.357,68.667 21.357 C 68.509 21.357,68.540 21.410,68.750 21.500 M70.463 21.789 C 70.855 21.824,71.455 21.824,71.796 21.788 C 72.137 21.752,71.817 21.723,71.083 21.724 C 70.350 21.724,70.071 21.754,70.463 21.789 " stroke="none" fill="#797979" fill-rule="evenodd"></path><path id="path4" d="" stroke="none" fill="#949494" fill-rule="evenodd"></path><path id="path5" d="" stroke="none" fill="#8c8c8c" fill-rule="evenodd"></path></g></svg>